<svg width="500" height="500" viewBox="0 0 500 500" fill="none" xmlns="http://www.w3.org/2000/svg">
<path fill-rule="evenodd" clip-rule="evenodd" d="M139.088 82.8727C166.479 64.5711 197.867 53.3597 230.442 50.0913C241.458 48.9861 250.455 58.0646 250.455 69.1354V69.1354C250.455 80.2063 241.446 89.0518 230.461 90.4321C205.829 93.5273 182.155 102.313 161.362 116.207C134.99 133.828 114.436 158.874 102.298 188.176C90.1605 217.479 86.9847 249.723 93.1724 280.83C99.3601 311.938 114.633 340.512 137.061 362.939C159.488 385.367 188.062 400.64 219.17 406.828C250.277 413.015 282.521 409.84 311.824 397.702C341.126 385.564 366.172 365.01 383.793 338.638C397.687 317.845 406.473 294.171 409.568 269.539C410.948 258.554 419.794 249.545 430.865 249.545V249.545C441.935 249.545 451.014 258.542 449.909 269.558C446.64 302.133 435.429 333.522 417.127 360.912C395.101 393.876 363.794 419.569 327.166 434.741C290.537 449.913 250.233 453.883 211.348 446.148C172.464 438.414 136.746 419.322 108.712 391.288C80.6779 363.254 61.5864 327.536 53.8518 288.652C46.1172 249.767 50.0869 209.462 65.2588 172.834C80.4308 136.206 106.124 104.899 139.088 82.8727ZM380.086 162.926C393.593 183.142 402.135 206.158 405.145 230.106C406.487 240.786 397.636 249.545 386.872 249.545V249.545C376.109 249.545 367.549 240.76 365.763 230.146C363.034 213.922 356.898 198.382 347.677 184.581C334.828 165.352 316.566 150.364 295.2 141.514C273.833 132.663 250.322 130.348 227.639 134.86C204.957 139.371 184.121 150.508 167.768 166.861C151.415 183.215 140.278 204.05 135.766 226.733C131.254 249.415 133.57 272.926 142.42 294.293C151.271 315.659 166.258 333.922 185.488 346.77C199.288 355.992 214.829 362.127 231.053 364.857C241.667 366.642 250.452 375.202 250.452 385.966V385.966C250.452 396.729 241.692 405.58 231.013 404.238C207.065 401.229 184.049 392.687 163.833 379.179C138.194 362.047 118.21 337.698 106.41 309.209C94.6096 280.72 91.5221 249.372 97.5379 219.128C103.554 188.885 118.403 161.105 140.207 139.3C162.011 117.496 189.792 102.647 220.035 96.6312C250.279 90.6154 281.627 93.703 310.116 105.503C338.604 117.304 362.954 137.287 380.086 162.926ZM250.452 344.204C250.452 353.43 257.972 361.037 267.094 359.658C283.207 357.223 298.66 351.269 312.322 342.141C330.636 329.904 344.91 312.511 353.338 292.162C361.767 271.813 363.973 249.421 359.676 227.819C355.379 206.216 344.772 186.373 329.198 170.799C313.623 155.224 293.78 144.618 272.178 140.321C250.575 136.024 228.184 138.229 207.834 146.658C187.485 155.087 170.093 169.361 157.856 187.674C148.727 201.337 142.774 216.79 140.338 232.903C138.959 242.025 146.567 249.545 155.792 249.545V249.545C165.018 249.545 172.318 241.982 174.28 232.968C176.346 223.472 180.181 214.397 185.635 206.236C194.2 193.416 206.375 183.424 220.62 177.524C234.864 171.624 250.538 170.08 265.66 173.088C280.782 176.096 294.672 183.52 305.574 194.423C316.476 205.325 323.901 219.215 326.908 234.337C329.916 249.458 328.373 265.133 322.472 279.377C316.572 293.621 306.58 305.796 293.761 314.362C285.599 319.815 276.525 323.65 267.029 325.717C258.014 327.679 250.452 334.979 250.452 344.204V344.204ZM194.894 286.667C190.666 280.34 187.574 273.372 185.711 266.076C183.428 257.137 191.112 249.545 200.338 249.545V249.545C209.564 249.545 216.709 257.466 221.132 265.562C221.607 266.43 222.12 267.279 222.673 268.106C226.344 273.6 231.562 277.882 237.666 280.411C243.771 282.94 250.489 283.601 256.969 282.312C263.45 281.023 269.403 277.841 274.075 273.169C278.748 268.496 281.93 262.543 283.219 256.063C284.508 249.582 283.846 242.865 281.318 236.76C278.789 230.655 274.507 225.437 269.013 221.766C268.186 221.214 267.337 220.7 266.469 220.226C258.373 215.803 250.452 208.657 250.452 199.431V199.431C250.452 190.205 258.044 182.521 266.983 184.804C274.279 186.667 281.246 189.76 287.574 193.988C298.562 201.33 307.126 211.765 312.184 223.975C317.241 236.184 318.564 249.619 315.986 262.581C313.408 275.542 307.044 287.448 297.699 296.793C288.355 306.137 276.449 312.501 263.487 315.079C250.526 317.658 237.091 316.334 224.881 311.277C212.672 306.22 202.236 297.655 194.894 286.667Z" fill="url(#paint0_angular_477_2391)"/>
<defs>
<radialGradient id="paint0_angular_477_2391" cx="0" cy="0" r="1" gradientUnits="userSpaceOnUse" gradientTransform="translate(250 250) rotate(90) scale(200 200)">
<stop/>
<stop offset="0.6235" stop-color="#810000"/>
</radialGradient>
</defs>
</svg>
